<svg width="58" height="48" viewBox="0 0 58 48" fill="none" xmlns="http://www.w3.org/2000/svg">
<path d="M10.6165 0C7.80474 0 5.38942 2.01563 4.8363 4.81875L0.116299 28.8187C-0.611982 32.5312 2.17208 36 5.89646 36H25.9011V42H20.0011C18.3694 42 17.0511 43.3406 17.0511 45C17.0511 46.6594 18.3694 48 20.0011 48H37.7011C39.3329 48 40.6511 46.6594 40.6511 45C40.6511 43.3406 39.3329 42 37.7011 42H31.8011V36H51.8058C55.5302 36 58.3235 32.5406 57.5952 28.8187L52.8752 4.81875C52.3129 2.01563 49.8975 0 47.0858 0H10.6165ZM23.4029 6H34.2994L35.2582 15.75H22.4441L23.4029 6ZM18.0007 15.75H8.69896L10.6165 6H18.9502L18.0007 15.75ZM7.81396 20.25H17.5582L16.5994 30H5.89646L7.81396 20.25ZM22.0016 20.25H35.7007L36.6594 30H21.0429L22.0016 20.25ZM40.1441 20.25H49.8883L51.8058 30H41.1121L40.1441 20.25ZM48.9941 15.75H39.7016L38.7429 6H47.0766L49.9713 5.40938L47.0858 6L49.0033 15.75H48.9941Z" fill="#FAB436"/>
</svg>
