<svg width="61" height="70" viewBox="0 0 61 70" fill="none" xmlns="http://www.w3.org/2000/svg">
<g clip-path="url(#clip0_10_188)">
<path d="M13.4772 62.1429H7.80273V67.8571H13.4772V62.1429Z" stroke="#FAB436" stroke-width="4" stroke-miterlimit="10"/>
<path d="M39.0113 62.1429H33.3369V67.8571H39.0113V62.1429Z" stroke="#FAB436" stroke-width="4" stroke-miterlimit="10"/>
<path d="M29.0813 49.2857H17.7324V55H29.0813V49.2857Z" stroke="#FAB436" stroke-width="4" stroke-miterlimit="10"/>
<path d="M44.6861 10.7143V7.85714C44.6861 4.7 42.1468 2.14285 39.0116 2.14285H7.80235C4.66723 2.14285 2.12793 4.7 2.12793 7.85714V56.4286C2.12793 59.5857 4.66723 62.1429 7.80235 62.1429H39.0116C42.1468 62.1429 44.6861 59.5857 44.6861 56.4286V50.7143" stroke="#FAB436" stroke-width="4" stroke-miterlimit="10"/>
<path d="M16.3135 10.7143H30.4995" stroke="#FAB436" stroke-width="4" stroke-miterlimit="10"/>
<path d="M57.4538 29.2857C55.8934 30.9429 54.1485 31.6714 51.7794 32.1429C51.7794 25 50.4743 20.1429 44.6864 16.4286C44.6864 20.7143 43.9203 25.5 40.4306 29.2857C39.8064 24.7143 36.1748 23.5714 36.1748 23.5714C36.1748 27.8571 31.9189 32.5143 31.9189 37.8571C31.9189 43.6143 35.4796 46.7857 39.012 47.8571C39.0829 43.5429 39.012 40.2 43.2678 36.4286C45.7078 42.4143 50.4176 40.5143 50.3608 47.8571C56.021 46.1571 58.8724 41.5429 58.8724 36.4286C58.8724 32.1429 57.4538 29.2857 57.4538 29.2857Z" stroke="#FAB436" stroke-width="4" stroke-miterlimit="10"/>
</g>
<defs>
<clipPath id="clip0_10_188">
<rect width="61" height="70" fill="white"/>
</clipPath>
</defs>
</svg>
