<svg width="69" height="68" viewBox="0 0 69 68" fill="none" xmlns="http://www.w3.org/2000/svg">
<g clip-path="url(#clip0_10_212)">
<path d="M7.61035 7.61H60.9104" stroke="#FAB436" stroke-width="4" stroke-miterlimit="10"/>
<path d="M4.81 2C3.26 2 2 3.26 2 4.81V27.25C2 28.8 3.26 30.06 4.81 30.06H9.02V24.45H59.51V30.06H63.72C65.27 30.06 66.53 28.8 66.53 27.25V4.81C66.53 3.26 65.27 2 63.72 2H4.81Z" stroke="#FAB436" stroke-width="4" stroke-miterlimit="10"/>
<path d="M13.2197 30.05H55.2997" stroke="#FAB436" stroke-width="4" stroke-miterlimit="10"/>
<path d="M28.6504 18.83H39.8704" stroke="#FAB436" stroke-width="4" stroke-miterlimit="10"/>
<path d="M25.8496 58.11V34.26" stroke="#FAB436" stroke-width="4" stroke-miterlimit="10"/>
<path d="M14.6202 34.26C14.6202 37.85 13.1902 41.3 10.6502 43.84L10.4102 44.08" stroke="#FAB436" stroke-width="4" stroke-miterlimit="10"/>
<path d="M20.2399 34.26C20.2399 40.66 18.3399 46.92 14.7899 52.25L14.6299 52.5" stroke="#FAB436" stroke-width="4" stroke-miterlimit="10"/>
<path d="M46.8899 58.1C50.7614 58.1 53.8999 54.9615 53.8999 51.09C53.8999 47.2185 50.7614 44.08 46.8899 44.08C43.0184 44.08 39.8799 47.2185 39.8799 51.09C39.8799 54.9615 43.0184 58.1 46.8899 58.1Z" stroke="#FAB436" stroke-width="4" stroke-miterlimit="10"/>
<path d="M46.8896 39.87V34.26" stroke="#FAB436" stroke-width="4" stroke-miterlimit="10"/>
<path d="M46.8896 67.93V62.32" stroke="#FAB436" stroke-width="4" stroke-miterlimit="10"/>
<path d="M54.8203 43.16L58.7903 39.19" stroke="#FAB436" stroke-width="4" stroke-miterlimit="10"/>
<path d="M34.9805 63L38.9505 59.03" stroke="#FAB436" stroke-width="4" stroke-miterlimit="10"/>
<path d="M58.1104 51.09H63.7204" stroke="#FAB436" stroke-width="4" stroke-miterlimit="10"/>
<path d="M30.0498 51.09H35.6598" stroke="#FAB436" stroke-width="4" stroke-miterlimit="10"/>
<path d="M38.9505 43.16L34.9805 39.19" stroke="#FAB436" stroke-width="4" stroke-miterlimit="10"/>
<path d="M58.7903 63L54.8203 59.03" stroke="#FAB436" stroke-width="4" stroke-miterlimit="10"/>
</g>
<defs>
<clipPath id="clip0_10_212">
<rect width="68.52" height="67.93" fill="white"/>
</clipPath>
</defs>
</svg>
