<svg width="61" height="71" viewBox="0 0 61 71" fill="none" xmlns="http://www.w3.org/2000/svg">
<g clip-path="url(#clip0_10_174)">
<path d="M13.3644 63.6042H7.4248V69.5208H13.3644V63.6042Z" stroke="#FAB436" stroke-width="4" stroke-miterlimit="10"/>
<path d="M40.093 63.6042H34.1533V69.5208H40.093V63.6042Z" stroke="#FAB436" stroke-width="4" stroke-miterlimit="10"/>
<path d="M29.6986 50.2917H17.8193V56.2083H29.6986V50.2917Z" stroke="#FAB436" stroke-width="4" stroke-miterlimit="10"/>
<path d="M51.9722 11.8333L49.0024 28.1042H57.9118L40.093 50.2917L43.0628 34.0208H34.1533L51.9722 11.8333Z" stroke="#FAB436" stroke-width="4" stroke-miterlimit="10"/>
<path d="M46.0326 11.8333V7.39584C46.0326 4.12688 43.3746 1.47917 40.0929 1.47917H7.42498C4.14334 1.47917 1.48535 4.12688 1.48535 7.39584V57.6875C1.48535 60.9565 4.14334 63.6042 7.42498 63.6042H40.0929C43.3746 63.6042 46.0326 60.9565 46.0326 57.6875V50.2917" stroke="#FAB436" stroke-width="4" stroke-miterlimit="10"/>
<path d="M16.334 10.3542H31.1831" stroke="#FAB436" stroke-width="4" stroke-miterlimit="10"/>
</g>
<defs>
<clipPath id="clip0_10_174">
<rect width="61" height="71" fill="white"/>
</clipPath>
</defs>
</svg>
