<svg width="70" height="70" viewBox="0 0 70 70" fill="none" xmlns="http://www.w3.org/2000/svg">
<g clip-path="url(#clip0_10_241)">
<path d="M34.8903 50.62C36.4698 50.62 37.7503 49.3395 37.7503 47.76C37.7503 46.1805 36.4698 44.9 34.8903 44.9C33.3107 44.9 32.0303 46.1805 32.0303 47.76C32.0303 49.3395 33.3107 50.62 34.8903 50.62Z" stroke="#FAB436" stroke-width="4" stroke-miterlimit="10"/>
<path d="M34.8896 17.72V44.9" stroke="#FAB436" stroke-width="4" stroke-miterlimit="10"/>
<path d="M40.6099 17.72C40.6099 14.56 38.0499 12 34.8899 12C31.7299 12 29.1699 14.56 29.1699 17.72V39.54C26.5799 41.35 24.8799 44.35 24.8799 47.75C24.8799 53.28 29.3599 57.76 34.8899 57.76C40.4199 57.76 44.8999 53.28 44.8999 47.75C44.8999 44.35 43.1999 41.35 40.6099 39.54V17.72Z" stroke="#FAB436" stroke-width="4" stroke-miterlimit="10"/>
<path d="M8.81 54.92C4.27 49.04 2 41.97 2 34.9C2 26.48 5.21 18.07 11.64 11.65C24.48 -1.21 45.3 -1.21 58.15 11.64" stroke="#FAB436" stroke-width="4" stroke-miterlimit="10"/>
<path d="M60.9796 14.87C65.5196 20.75 67.7896 27.82 67.7896 34.89C67.7896 43.31 64.5797 51.72 58.1497 58.14C45.3097 71 24.4796 71 11.6396 58.14" stroke="#FAB436" stroke-width="4" stroke-miterlimit="10"/>
<path d="M46.3301 12.01H57.7701V0.570007" stroke="#FAB436" stroke-width="4" stroke-miterlimit="10"/>
<path d="M23.4498 57.78H12.0098V69.22" stroke="#FAB436" stroke-width="4" stroke-miterlimit="10"/>
</g>
<defs>
<clipPath id="clip0_10_241">
<rect width="69.79" height="69.79" fill="white"/>
</clipPath>
</defs>
</svg>
